<?xml version="1.0" encoding="utf-8"?>
<!-- Generator: Adobe Illustrator 26.0.0, SVG Export Plug-In . SVG Version: 6.00 Build 0)  -->
<svg version="1.1" id="Слой_1" xmlns="http://www.w3.org/2000/svg" xmlns:xlink="http://www.w3.org/1999/xlink" x="0px" y="0px"
	 viewBox="0 0 595.3 841.9" style="enable-background:new 0 0 595.3 841.9;" xml:space="preserve">
<style type="text/css">
	.st0{fill:#FFFFFF;}
</style>
<g>
	<path class="st0" d="M255.9,692.1c-54.6,0-109.1,0.1-163.7,0C61.3,692,37,673.4,30,644.5c-1.3-5.2-1.8-10.7-1.8-16.1
		c-0.1-109.5-0.1-219,0-328.5c0-36.5,27.1-63.6,63.7-63.6c76.1-0.1,152.3,0,228.4,0c8.7,0,14,3.7,15,10.4c1.1,7.1-3.8,13.5-11,14.3
		c-2,0.2-4.1,0.1-6.2,0.1c-74.6,0-149.3,0-223.9,0c-25.9,0-41.2,15.4-41.2,41.3c0,108,0,216,0,324c0,25.4,15.5,40.9,41.1,40.9
		c108,0,216,0,324,0c25.9,0,41.1-15.3,41.1-41.3c0-74.6,0-149.2,0-223.9c0-2.1-0.1-4.1,0.1-6.2c0.8-6.5,6.4-11.3,12.8-11
		c6.2,0.3,11.2,5.1,11.8,11.4c0.1,1.3,0.1,2.6,0.1,3.9c0,75.9,0,151.9,0,227.8c0,30.6-18.4,54.9-47,62.1c-6.3,1.6-13,1.9-19.5,1.9
		C363.6,692.2,309.8,692.1,255.9,692.1z"/>
	<path class="st0" d="M269.6,436.8c0.4-1.3,0.9-3.5,1.6-5.6c9.8-29.7,19.5-59.4,29.6-88.9c1.3-3.7,3.6-7.5,6.4-10.3
		c57.6-57.8,115.3-115.4,172.9-173.1c9-9,14.8-9.1,23.7-0.2c19.4,19.3,38.8,38.6,58.1,58c8.3,8.3,8.4,14.3,0.2,22.5
		c-58.1,58.1-116.1,116.2-174.3,174.1c-2.7,2.7-6.3,4.8-9.9,6c-29.9,10.2-60,20.1-90,30.1C277.7,452.8,269,447.2,269.6,436.8z
		 M377,387.3c53.3-53.2,106.8-106.5,159.9-159.6c-14.7-14.7-29.8-29.8-44.6-44.6c-53.2,53.2-106.6,106.6-159.7,159.7
		C347.4,357.6,362.4,372.7,377,387.3z M318.8,367c-5.6,16.9-11.2,33.8-17.1,51.7c18.2-6.1,35-11.7,51.5-17.2
		C341.5,389.8,330.3,378.6,318.8,367z"/>
</g>
</svg>
